# xmcd
#
# Track frame offsets:
#	150
#	16058
#	30285
#	47654
#	65334
#	79132
#	93589
#	106281
#	121708
#	140045
#	154405
#	169554
#	189393
#	207158
#
# Disc length: 3038
#
# Revision: 3
# Processed by: cddbd v1.5.1PL0 Copyright (c) Steve Scherf et al.
# Submitted via: VisiTrax 2.9.9.209 - For more info visit www.synapsa.com
# Normalized: r2:DSETVAR1
#
DISCID=ad0bdc0e
DTITLE=Various Artist - Mr Music Country 04-04
DYEAR=2004
DGENRE=Country
TTITLE0=Marty Stuart - A Satisfied Mind
TTITLE1=BR549 - No Train to Memphis
TTITLE2=Pam Tillis - Violet and a Rose
TTITLE3=Davis Raines - Gentle on my Mind
TTITLE4=Shawn Camp - Been There Done That
TTITLE5=Izak and West - Aqui en este Mundo ( Here in this World)
TTITLE6=Ben Olander - A Smile is a Frown
TTITLE7=Patty Loveless - Draggin' My Heart Around
TTITLE8=Buddy Jewel and Miranda Lambert - Today I Started Loving You Again
TTITLE9=Shayne Weems - Honey Can I Hold You
TTITLE10=Travis Tritt - Time to Get Crazy
TTITLE11=Tammy Cochran - Life Happened
TTITLE12=Karen Tobin - Maybe Mexico
TTITLE13=Rodney Crowell - Ridin' Out the Storm
EXTD=
EXTT0=
EXTT1=
EXTT2=
EXTT3=
EXTT4=
EXTT5=
EXTT6=
EXTT7=
EXTT8=
EXTT9=
EXTT10=
EXTT11=
EXTT12=
EXTT13=
PLAYORDER=
